<?xml version="1.0" standalone="no"?>
<!DOCTYPE svg PUBLIC "-//W3C//DTD SVG 20010904//EN"
 "http://www.w3.org/TR/2001/REC-SVG-20010904/DTD/svg10.dtd">
<svg version="1.0" xmlns="http://www.w3.org/2000/svg"
 width="1668.000000pt" height="1022.000000pt" viewBox="0 0 1668.000000 1022.000000"
 preserveAspectRatio="xMidYMid meet">

<g transform="translate(0.000000,1022.000000) scale(0.100000,-0.100000)"
fill="#000000" stroke="none">
<path d="M0 5110 l0 -5110 8340 0 8340 0 0 5110 0 5110 -8340 0 -8340 0 0
-5110z m2058 4043 c3 -19 -1 -23 -22 -23 -18 0 -26 5 -26 18 0 14 -2 15 -10 2
-5 -8 -17 -15 -26 -15 -10 0 -19 -6 -21 -12 -3 -8 4 -13 16 -13 14 0 21 -6 21
-20 0 -13 -7 -20 -20 -20 -18 0 -20 -7 -20 -65 0 -63 -1 -65 -25 -65 -24 0
-25 3 -25 61 0 47 -4 65 -17 75 -17 13 -17 15 0 28 9 7 17 22 17 33 0 34 21
44 90 41 59 -3 65 -5 68 -25z m92 -93 l0 -120 -25 0 -25 0 0 120 0 120 25 0
25 0 0 -120z m195 48 c11 0 31 3 45 7 47 12 64 -14 68 -99 l4 -76 -31 0 -31 0
0 65 c0 57 -2 65 -19 65 -24 0 -31 -19 -31 -81 0 -45 -2 -49 -25 -49 -23 0
-24 4 -27 63 -3 54 -5 62 -23 62 -18 0 -20 -8 -23 -62 -3 -59 -4 -63 -27 -63
-25 0 -25 1 -25 86 0 86 0 86 24 82 14 -3 31 -1 38 4 7 5 24 6 38 2 14 -3 34
-6 45 -6z m250 2 c21 -8 24 -13 16 -28 -7 -14 -18 -18 -43 -15 l-33 4 40 -23
c75 -44 54 -108 -36 -108 -45 0 -49 2 -49 24 0 23 3 24 35 19 19 -3 35 -1 35
4 0 5 -16 17 -35 26 -28 13 -35 23 -35 44 0 32 9 48 30 56 23 9 46 8 75 -3z
m-535 -85 c0 -84 0 -85 -25 -85 -25 0 -25 1 -25 85 0 84 0 85 25 85 25 0 25
-1 25 -85z m9705 -5 c21 -8 24 -13 16 -28 -7 -14 -18 -18 -43 -15 l-33 4 40
-23 c75 -44 54 -108 -36 -108 -45 0 -49 2 -49 24 0 23 3 24 35 19 19 -3 35 -1
35 4 0 5 -16 17 -35 26 -28 13 -35 23 -35 44 0 32 9 48 30 56 23 9 46 8 75 -3z
m183 -13 c7 -8 15 -30 15 -48 l2 -34 -54 -5 c-48 -4 -52 -7 -38 -19 11 -9 28
-11 53 -7 33 7 35 6 32 -16 -3 -20 -9 -23 -55 -26 -70 -4 -93 18 -93 87 0 42
4 53 27 71 31 24 85 22 111 -3z m166 14 c9 -14 -4 -41 -20 -41 -22 0 -44 -42
-44 -87 0 -39 -2 -43 -25 -43 -25 0 -25 1 -25 86 l0 87 28 -6 c15 -3 34 -2 42
4 19 11 37 11 44 0z m121 -1 c21 -8 24 -13 16 -28 -7 -14 -18 -18 -43 -15
l-33 4 40 -23 c75 -44 54 -108 -36 -108 -45 0 -49 2 -49 24 0 23 3 24 35 19
19 -3 35 -1 35 4 0 5 -16 17 -35 26 -28 13 -35 23 -35 44 0 32 9 48 30 56 23
9 46 8 75 -3z m-725 -49 c0 -58 7 -81 26 -81 20 0 34 34 34 84 0 42 2 46 25
46 25 0 25 -1 25 -84 l0 -83 -62 -1 c-86 -1 -98 11 -98 100 0 66 1 68 25 68
23 0 25 -3 25 -49z m-4390 -541 c0 -100 -2 -120 -15 -120 -12 0 -15 17 -15 95
0 94 -4 107 -28 83 -9 -9 -15 -9 -24 0 -6 6 -10 13 -7 15 91 69 89 71 89 -73z
m3940 -90 c0 -100 -2 -120 -15 -120 -12 0 -15 17 -15 95 0 94 -4 107 -28 83
-9 -9 -15 -9 -24 0 -6 6 -10 13 -7 15 91 69 89 71 89 -73z m4040 0 c0 -113 -1
-120 -20 -120 -19 0 -20 7 -20 97 0 75 -3 94 -12 85 -16 -16 -38 -15 -38 2 0
18 49 55 73 56 15 0 17 -12 17 -120z m-13156 44 c8 -21 -1 -34 -24 -34 -22 0
-34 15 -26 35 7 20 42 19 50 -1z m196 -103 l0 -119 -64 -1 c-50 0 -67 4 -80
18 -18 20 -24 81 -11 120 8 27 47 43 81 35 22 -6 24 -3 24 30 0 32 3 36 25 36
l25 0 0 -119z m4198 91 c3 -17 -2 -22 -18 -22 -25 0 -38 29 -19 41 20 13 34 6
37 -19z m302 -22 c0 -15 7 -20 26 -20 33 0 29 -33 -4 -38 -20 -3 -23 -8 -20
-45 2 -35 7 -43 26 -45 14 -2 22 -10 22 -23 0 -15 -7 -19 -34 -19 -48 0 -66
22 -66 81 0 27 -4 49 -10 49 -15 0 -12 28 3 37 8 4 16 16 20 26 9 24 37 22 37
-3z m550 -44 c0 -34 0 -34 62 -45 86 -15 134 -49 166 -119 l27 -57 3 -3195 c1
-2120 -1 -3213 -8 -3250 -19 -103 -92 -171 -199 -185 -25 -3 -98 -26 -161 -50
-63 -25 -119 -45 -123 -45 -5 0 -7 10 -5 21 2 16 18 28 58 43 l55 21 -57 3
c-49 3 -58 6 -58 22 0 16 9 19 63 22 l62 3 -62 24 c-47 17 -63 28 -63 42 0 27
12 25 139 -27 108 -43 116 -45 163 -34 65 14 106 43 129 94 18 40 19 143 19
3267 l0 3226 -23 43 c-27 52 -90 90 -149 90 -37 0 -38 -1 -38 -35 0 -28 -4
-35 -20 -35 -16 0 -20 7 -20 35 l0 35 -105 0 -105 0 0 25 0 25 105 0 105 0 0
35 c0 28 4 35 20 35 16 0 20 -7 20 -34z m-5250 -61 c0 -84 0 -85 -25 -85 -25
0 -25 1 -25 85 0 84 0 85 25 85 25 0 25 -1 25 -85z m4400 0 c0 -84 0 -85 -25
-85 -25 0 -25 1 -25 85 0 84 0 85 25 85 25 0 25 -1 25 -85z m187 73 c8 -7 13
-36 13 -84 0 -67 -2 -74 -20 -74 -17 0 -20 7 -20 53 0 60 -10 80 -36 75 -15
-2 -20 -15 -24 -63 -4 -53 -8 -60 -27 -63 -22 -3 -23 -1 -23 81 l0 84 62 1
c34 1 68 -4 75 -10z m4987 -24 c8 -21 -1 -34 -24 -34 -22 0 -34 15 -26 35 7
20 42 19 50 -1z m196 -103 l0 -119 -64 -1 c-50 0 -67 4 -80 18 -18 20 -24 81
-11 120 8 27 47 43 81 35 22 -6 24 -3 24 30 0 32 3 36 25 36 l25 0 0 -119z
m2599 110 c19 -12 6 -41 -19 -41 -13 0 -20 7 -20 18 0 31 14 39 39 23z m308
-41 c3 -11 14 -20 24 -20 12 0 19 -7 19 -20 0 -13 -7 -20 -20 -20 -17 0 -20
-7 -20 -45 0 -38 3 -45 20 -45 13 0 20 -7 20 -20 0 -16 -7 -20 -33 -20 -45 0
-57 15 -57 76 0 33 -5 54 -12 57 -10 3 -10 8 0 23 7 11 15 27 18 37 8 23 35
22 41 -3z m-3627 -50 l0 -40 110 0 c103 0 110 -1 110 -20 0 -19 -7 -20 -110
-20 l-110 0 0 -40 c0 -33 -3 -40 -20 -40 -17 0 -20 7 -20 40 l0 40 -836 0
c-595 0 -848 -3 -881 -11 -63 -16 -108 -64 -122 -129 -8 -36 -11 -1061 -11
-3589 0 -3210 -1 -3542 -16 -3584 -22 -64 -88 -122 -155 -136 -33 -7 -333 -11
-895 -11 l-844 0 -112 -45 c-108 -43 -138 -46 -125 -12 3 7 29 23 59 35 l53
21 -57 0 c-51 1 -58 3 -58 21 0 16 8 19 63 22 l62 3 -62 24 c-44 16 -63 29
-63 41 0 9 3 19 6 22 3 3 60 -16 126 -43 l122 -49 827 0 c560 0 844 4 879 11
56 12 102 45 128 93 16 29 17 255 22 3616 l5 3585 21 40 c27 50 48 69 104 94
44 20 62 21 903 21 l857 0 0 40 c0 33 3 40 20 40 17 0 20 -7 20 -40z m4180 0
l0 -40 63 0 c75 0 130 -23 174 -73 62 -71 58 145 58 -2897 l-1 -2785 -22 -50
c-13 -27 -30 -58 -40 -68 -28 -31 -87 -56 -154 -66 -35 -5 -108 -28 -162 -50
-55 -23 -103 -41 -108 -41 -5 0 -8 10 -6 21 2 16 18 28 58 43 l55 21 -57 3
c-50 3 -58 6 -58 22 0 18 7 20 63 20 l62 1 -62 26 c-46 18 -63 30 -63 44 0 10
4 19 10 19 5 0 61 -21 124 -46 113 -45 116 -45 171 -34 70 15 117 58 134 123
7 30 11 159 11 368 l0 322 -22 -21 c-33 -30 -107 -62 -148 -62 -20 0 -86 -20
-148 -45 -61 -25 -116 -45 -122 -45 -5 0 -10 9 -10 19 0 14 17 26 63 44 l62
26 -62 1 c-56 0 -63 2 -63 20 0 16 8 19 58 22 l57 3 -55 21 c-40 15 -56 27
-58 43 -2 11 0 21 5 21 4 0 61 -21 125 -47 117 -46 118 -46 173 -34 75 17 119
60 135 133 8 39 10 680 8 2428 -3 2221 -4 2377 -20 2406 -26 48 -72 81 -128
93 -91 20 -100 17 -100 -29 0 -33 -3 -40 -20 -40 -17 0 -20 7 -20 40 l0 40
-110 0 c-103 0 -110 1 -110 20 0 19 7 20 110 20 l110 0 0 40 c0 33 3 40 20 40
17 0 20 -7 20 -40z m-3660 -55 c0 -84 0 -85 -25 -85 -25 0 -25 1 -25 85 0 84
0 85 25 85 25 0 25 -1 25 -85z m2808 3 c-3 -77 -5 -83 -25 -86 -22 -3 -23 -1
-23 82 0 85 0 86 25 86 26 0 26 0 23 -82z m192 62 c5 -10 10 -48 10 -84 0 -63
-1 -66 -25 -66 -23 0 -24 4 -27 62 -2 52 -6 63 -22 66 -26 5 -36 -15 -36 -75
0 -50 -2 -53 -25 -53 -25 0 -25 1 -25 83 l0 84 70 1 c59 1 71 -1 80 -18z
m-8240 -651 c3 -27 8 -39 13 -31 14 20 64 14 81 -10 22 -31 22 -148 1 -148
-12 0 -15 14 -15 63 0 81 -26 110 -64 71 -11 -10 -16 -34 -16 -75 0 -46 -3
-59 -15 -59 -13 0 -15 20 -15 121 0 92 3 120 13 117 6 -3 14 -24 17 -49z
m-4243 -49 c19 -37 17 -140 -2 -140 -11 0 -15 11 -15 39 0 21 -3 53 -6 70 -5
26 -11 31 -35 31 -35 0 -40 -8 -46 -81 -4 -40 -10 -59 -19 -59 -11 0 -14 20
-14 84 l0 83 62 -1 c56 -1 64 -4 75 -26z m173 11 c5 -11 10 -49 10 -84 l0 -64
-62 1 c-59 1 -63 3 -72 28 -13 37 14 68 60 68 39 0 54 18 29 36 -11 9 -25 10
-41 4 -14 -6 -26 -6 -29 0 -12 19 7 30 50 30 34 0 47 -5 55 -19z m172 6 c6 -9
10 -9 20 1 15 15 70 16 86 0 7 -7 12 -42 12 -85 0 -57 -3 -73 -15 -73 -11 0
-15 16 -17 68 -3 62 -5 67 -27 70 -32 5 -41 -12 -41 -80 0 -45 -3 -58 -15 -58
-12 0 -15 13 -15 58 0 68 -9 85 -41 80 -26 -3 -36 -29 -38 -95 -1 -31 -5 -43
-16 -43 -12 0 -15 16 -15 83 l0 83 57 2 c36 1 60 -3 65 -11z m280 -4 c10 -9
18 -29 18 -45 0 -27 -1 -28 -55 -28 -59 0 -60 -1 -45 -31 8 -14 21 -19 56 -19
61 0 54 -24 -8 -28 -37 -2 -50 1 -67 19 -32 35 -25 116 13 141 20 13 69 8 88
-9z m3018 -49 c12 -36 26 -62 30 -57 4 4 15 32 25 60 16 51 30 71 42 60 9 -10
-54 -162 -69 -165 -13 -2 -31 33 -74 151 -4 11 -1 17 9 17 10 0 23 -23 37 -66z
m237 36 c15 -29 17 -140 4 -140 -6 0 -13 5 -17 11 -4 8 -9 8 -17 0 -12 -12
-56 -14 -73 -3 -6 4 -14 17 -18 29 -10 32 24 63 69 63 23 0 35 5 35 14 0 24
-27 38 -60 31 -18 -4 -30 -3 -30 3 0 15 20 21 60 19 26 -2 38 -8 47 -27z m83
20 c0 -7 6 -7 19 0 28 14 51 12 51 -5 0 -8 -6 -12 -14 -9 -8 3 -24 -4 -35 -15
-16 -16 -21 -34 -21 -76 0 -30 -4 -55 -10 -55 -6 0 -10 35 -10 85 0 50 4 85
10 85 6 0 10 -5 10 -10z m212 -5 c-1 -5 -10 -10 -20 -11 -9 -1 -24 -2 -34 -3
-22 -2 -40 -55 -28 -86 9 -25 50 -42 69 -30 6 3 11 -1 11 -9 0 -12 -10 -16
-35 -16 -50 0 -75 28 -75 85 0 59 26 87 78 83 20 -2 36 -7 34 -13z m332 -1
c18 -18 23 -154 6 -154 -5 0 -10 5 -10 10 0 7 -6 7 -19 0 -26 -14 -64 -13 -79
2 -33 33 4 88 59 88 34 0 41 8 28 32 -9 16 -17 19 -45 13 -19 -3 -34 -2 -34 4
0 24 72 28 94 5z m89 4 c3 -10 7 -10 20 0 9 8 26 12 39 10 21 -3 20 -5 -14
-25 -37 -22 -38 -24 -38 -83 0 -47 -3 -60 -15 -60 -12 0 -15 16 -15 85 0 47 4
85 9 85 5 0 11 -6 14 -12z m5577 -128 c0 -100 -2 -120 -15 -120 -12 0 -15 20
-15 120 0 100 3 120 15 120 13 0 15 -20 15 -120z m2448 -3 c2 -100 0 -117 -13
-117 -13 0 -15 19 -15 121 0 92 3 120 13 117 8 -3 13 -39 15 -121z m-2523 93
c0 -22 -29 -18 -33 3 -3 14 1 18 15 15 10 -2 18 -10 18 -18z m2445 5 c0 -8 -4
-15 -9 -15 -13 0 -22 16 -14 24 11 11 23 6 23 -9z m-2991 -58 c6 -8 14 -28 17
-45 l7 -32 -57 0 c-39 0 -56 -4 -56 -13 0 -23 23 -37 62 -37 27 0 38 -4 38
-15 0 -11 -12 -15 -48 -15 -63 0 -85 22 -85 85 0 58 23 85 73 85 21 0 43 -6
49 -13z m177 2 c8 -7 14 -7 19 1 8 12 65 13 85 0 10 -6 16 -32 18 -84 4 -65 2
-76 -12 -76 -13 0 -16 11 -16 54 0 70 -7 86 -36 86 -30 0 -44 -32 -44 -96 0
-32 -4 -44 -15 -44 -12 0 -15 14 -15 65 0 52 -4 67 -16 72 -33 12 -49 -11 -52
-76 -2 -45 -7 -61 -17 -61 -12 0 -15 17 -15 84 l0 83 52 2 c28 0 57 -4 64 -10z
m284 -8 c5 -11 10 -49 10 -84 l0 -64 -62 1 c-59 1 -63 3 -72 28 -13 37 14 68
60 68 39 0 54 18 29 36 -11 9 -25 10 -41 4 -14 -6 -26 -6 -29 0 -12 19 7 30
50 30 34 0 47 -5 55 -19z m80 -66 c0 -69 -3 -85 -15 -85 -12 0 -15 16 -15 85
0 69 3 85 15 85 12 0 15 -16 15 -85z m1910 65 c11 -11 20 -31 20 -45 0 -24 -3
-25 -55 -25 -60 0 -70 -13 -35 -45 14 -13 28 -16 51 -11 22 4 29 2 27 -7 -3
-6 -21 -13 -41 -15 -29 -3 -42 3 -63 23 -23 23 -26 32 -21 68 9 70 73 101 117
57z m80 11 c0 -5 13 -4 29 2 22 8 36 8 55 -1 18 -8 32 -8 55 1 52 19 66 3 69
-87 2 -48 -1 -76 -8 -76 -6 0 -10 26 -10 63 0 81 -26 110 -64 71 -11 -10 -16
-34 -16 -75 0 -33 -4 -59 -10 -59 -5 0 -10 21 -10 48 0 85 -19 114 -61 92 -16
-9 -19 -22 -19 -75 0 -51 -3 -65 -15 -65 -12 0 -15 16 -15 85 0 50 4 85 10 85
6 0 10 -4 10 -9z m377 -21 c15 -29 17 -140 4 -140 -6 0 -13 5 -17 11 -4 8 -9
8 -17 0 -12 -12 -56 -14 -73 -3 -6 4 -14 17 -18 29 -10 32 24 63 69 63 23 0
35 5 35 14 0 24 -27 38 -60 31 -18 -4 -30 -3 -30 3 0 15 20 21 60 19 26 -2 38
-8 47 -27z m83 -55 c0 -50 -4 -85 -10 -85 -6 0 -10 35 -10 85 0 50 4 85 10 85
6 0 10 -35 10 -85z m-12540 -643 l0 -118 -53 -2 c-68 -3 -90 18 -90 83 0 61
24 88 75 83 38 -4 38 -3 38 34 0 27 4 38 15 38 12 0 15 -20 15 -118z m3530 67
c3 -27 8 -39 13 -31 14 20 64 14 81 -10 22 -31 22 -148 1 -148 -12 0 -15 14
-15 63 0 81 -26 110 -64 71 -11 -10 -16 -34 -16 -75 0 -46 -3 -59 -15 -59 -13
0 -15 20 -15 121 0 92 3 120 13 117 6 -3 14 -24 17 -49z m-2855 21 c0 -22 -29
-18 -33 3 -3 14 1 18 15 15 10 -2 18 -10 18 -18z m373 3 c-5 -25 -28 -28 -28
-4 0 12 6 21 16 21 9 0 14 -7 12 -17z m3319 -19 c23 -35 15 -161 -12 -180 -27
-20 -69 -17 -90 6 -43 48 -24 194 27 202 36 6 58 -3 75 -28z m180 0 c23 -35
15 -161 -12 -180 -27 -20 -69 -17 -90 6 -43 48 -24 194 27 202 36 6 58 -3 75
-28z m-527 -16 c-26 -56 -26 -133 0 -183 23 -45 17 -61 -11 -27 -26 33 -42 99
-35 146 9 52 35 106 52 106 10 0 8 -10 -6 -42z m164 26 c31 -30 17 -74 -42
-136 l-36 -38 52 0 c40 0 52 -4 52 -15 0 -12 -15 -15 -75 -15 -44 0 -75 4 -75
10 0 6 25 37 56 71 43 47 55 66 52 87 -2 21 -9 28 -31 30 -16 2 -34 -2 -42 -8
-10 -8 -15 -8 -20 1 -18 29 81 41 109 13z m460 -48 c17 -52 18 -67 8 -115 -11
-50 -44 -103 -57 -90 -2 3 4 23 15 44 26 50 26 127 0 183 -18 40 -18 43 -2 40
11 -2 24 -24 36 -62z m-3704 34 c0 -15 7 -20 25 -20 16 0 25 -6 25 -15 0 -9
-10 -15 -26 -15 -24 0 -25 -2 -22 -52 3 -46 6 -53 26 -56 33 -5 28 -32 -6 -32
-41 0 -52 17 -52 82 0 32 -4 58 -10 58 -5 0 -10 7 -10 15 0 8 4 15 9 15 5 0
13 9 16 20 3 11 11 20 16 20 5 0 9 -9 9 -20z m-771 -33 c6 -8 14 -28 17 -45
l7 -32 -57 0 c-39 0 -56 -4 -56 -13 0 -23 23 -37 62 -37 27 0 38 -4 38 -15 0
-11 -12 -15 -48 -15 -63 0 -85 22 -85 85 0 58 23 85 73 85 21 0 43 -6 49 -13z
m161 -3 c0 -11 -8 -15 -27 -14 -67 5 -74 -19 -13 -43 34 -13 40 -20 40 -45 0
-40 -20 -54 -72 -50 -31 2 -44 8 -46 20 -3 14 1 16 28 8 58 -16 87 20 33 41
-88 33 -79 99 13 99 33 0 44 -4 44 -16z m150 2 c0 -10 -13 -16 -37 -18 -30 -2
-38 -8 -46 -31 -15 -46 5 -77 48 -77 24 0 35 -5 35 -15 0 -24 -75 -20 -100 5
-28 28 -27 98 0 128 25 26 100 32 100 8z m140 -2 c0 -8 -10 -14 -25 -14 -32 0
-45 -26 -45 -89 0 -39 -4 -51 -15 -51 -12 0 -15 16 -15 83 l0 84 50 1 c37 1
50 -3 50 -14z m50 -69 c0 -69 -3 -85 -15 -85 -12 0 -15 16 -15 85 0 69 3 85
15 85 12 0 15 -16 15 -85z m166 77 c17 -11 34 -48 34 -76 0 -61 -38 -95 -95
-84 -23 5 -25 2 -25 -33 0 -28 -4 -39 -15 -39 -12 0 -15 20 -15 119 l0 118 53
1 c28 1 57 -2 63 -6z m214 -77 c0 -69 -3 -85 -15 -85 -12 0 -15 16 -15 85 0
69 3 85 15 85 12 0 15 -16 15 -85z m170 63 c28 -30 27 -94 -2 -125 -32 -34
-92 -32 -115 4 -22 34 -21 97 2 123 25 28 88 27 115 -2z m186 11 c20 -17 19
-159 -1 -159 -11 0 -15 16 -17 68 -3 61 -5 67 -26 70 -39 6 -52 -15 -52 -79 0
-46 -3 -59 -15 -59 -12 0 -15 16 -15 84 l0 83 56 2 c32 0 63 -4 70 -10z m1524
-55 c12 -36 26 -62 30 -57 4 4 15 32 25 60 16 51 30 71 42 60 9 -10 -54 -162
-69 -165 -13 -2 -31 33 -74 151 -4 11 -1 17 9 17 10 0 23 -23 37 -66z m234 50
c18 -18 23 -154 6 -154 -5 0 -10 5 -10 10 0 7 -6 7 -19 0 -26 -14 -64 -13 -79
2 -33 33 4 88 59 88 34 0 41 8 28 32 -9 16 -17 19 -45 13 -19 -3 -34 -2 -34 4
0 24 72 28 94 5z m89 4 c3 -10 7 -10 20 0 9 8 26 12 39 10 21 -3 20 -5 -14
-25 -37 -22 -38 -24 -38 -83 0 -47 -3 -60 -15 -60 -12 0 -15 16 -15 85 0 47 4
85 9 85 5 0 11 -6 14 -12z m209 -3 c-1 -5 -10 -10 -20 -11 -9 -1 -24 -2 -34
-3 -22 -2 -40 -55 -28 -86 9 -25 50 -42 69 -30 6 3 11 -1 11 -9 0 -12 -10 -16
-35 -16 -50 0 -75 28 -75 85 0 59 26 87 78 83 20 -2 36 -7 34 -13z m332 -1
c18 -18 23 -154 6 -154 -5 0 -10 5 -10 10 0 7 -6 7 -19 0 -26 -14 -64 -13 -79
2 -33 33 4 88 59 88 34 0 41 8 28 32 -9 16 -17 19 -45 13 -19 -3 -34 -2 -34 4
0 24 72 28 94 5z m89 4 c3 -10 7 -10 20 0 9 8 26 12 39 10 21 -3 20 -5 -14
-25 -37 -22 -38 -24 -38 -83 0 -47 -3 -60 -15 -60 -12 0 -15 16 -15 85 0 47 4
85 9 85 5 0 11 -6 14 -12z m5577 -138 c0 -100 -2 -120 -15 -120 -12 0 -15 20
-15 120 0 100 3 120 15 120 13 0 15 -20 15 -120z m2750 76 l0 -44 29 11 c22 8
36 8 55 -1 25 -11 26 -16 26 -87 0 -43 -4 -75 -10 -75 -5 0 -10 25 -10 56 0
88 -27 117 -70 74 -15 -15 -20 -33 -20 -75 0 -30 -4 -55 -10 -55 -6 0 -10 47
-10 120 0 73 4 120 10 120 6 0 10 -20 10 -44z m-2315 14 c0 -22 -29 -18 -33 3
-3 14 1 18 15 15 10 -2 18 -10 18 -18z m-255 -62 c28 -30 27 -94 -2 -125 -32
-34 -92 -32 -115 4 -22 34 -21 97 2 123 25 28 88 27 115 -2z m200 12 c0 -5 -4
-10 -10 -10 -5 0 -10 -13 -10 -28 0 -33 -24 -59 -60 -64 -37 -5 -26 -23 17
-26 98 -8 75 -102 -25 -102 -26 0 -53 5 -60 12 -14 14 -16 50 -3 64 13 14 21
73 11 79 -15 10 -12 52 6 69 18 18 134 23 134 6z m50 -75 c0 -69 -3 -85 -15
-85 -12 0 -15 16 -15 85 0 69 3 85 15 85 12 0 15 -16 15 -85z m187 55 c19 -37
17 -140 -2 -140 -11 0 -15 11 -15 39 0 21 -3 53 -6 70 -5 26 -11 31 -35 31
-35 0 -40 -8 -46 -81 -4 -40 -10 -59 -19 -59 -11 0 -14 20 -14 84 l0 83 62 -1
c56 -1 64 -4 75 -26z m1537 -32 c12 -31 24 -59 27 -62 2 -3 15 24 28 60 13 37
29 64 37 64 10 0 6 -20 -17 -82 -34 -94 -33 -92 -52 -85 -13 5 -67 133 -67
158 0 28 26 -3 44 -53z m243 32 c15 -29 17 -140 4 -140 -6 0 -13 5 -17 11 -4
8 -9 8 -17 0 -12 -12 -56 -14 -73 -3 -6 4 -14 17 -18 29 -10 32 24 63 69 63
23 0 35 5 35 14 0 24 -27 38 -60 31 -18 -4 -30 -3 -30 3 0 15 20 21 60 19 26
-2 38 -8 47 -27z m83 20 c0 -7 6 -7 19 0 28 14 51 12 51 -5 0 -8 -6 -12 -14
-9 -8 3 -24 -4 -35 -15 -16 -16 -21 -34 -21 -76 0 -30 -4 -55 -10 -55 -6 0
-10 35 -10 85 0 50 4 85 10 85 6 0 10 -5 10 -10z m208 -9 c3 -9 -2 -11 -17 -6
-14 4 -31 1 -46 -9 -54 -35 -15 -130 46 -111 15 5 20 3 17 -6 -3 -8 -21 -15
-40 -17 -29 -3 -40 2 -58 25 -28 36 -22 99 11 126 25 20 80 20 87 -2z m339
-11 c15 -29 17 -140 4 -140 -6 0 -13 5 -17 11 -4 8 -9 8 -17 0 -12 -12 -56
-14 -73 -3 -6 4 -14 17 -18 29 -10 32 24 63 69 63 23 0 35 5 35 14 0 24 -27
38 -60 31 -18 -4 -30 -3 -30 3 0 15 20 21 60 19 26 -2 38 -8 47 -27z m83 20
c0 -7 6 -7 19 0 28 14 51 12 51 -5 0 -8 -6 -12 -14 -9 -8 3 -24 -4 -35 -15
-16 -16 -21 -34 -21 -76 0 -30 -4 -55 -10 -55 -6 0 -10 35 -10 85 0 50 4 85
10 85 6 0 10 -5 10 -10z m-12380 -720 c0 -100 -2 -120 -15 -120 -12 0 -15 20
-15 120 0 100 3 120 15 120 13 0 15 -20 15 -120z m4000 0 c0 -73 -4 -120 -10
-120 -5 0 -10 5 -10 10 0 7 -6 7 -19 0 -57 -30 -101 4 -101 77 0 60 28 87 81
79 l39 -6 0 40 c0 22 5 40 10 40 6 0 10 -47 10 -120z m-3150 88 c25 -16 40
-51 40 -93 0 -79 -41 -115 -130 -115 l-50 0 0 108 c0 60 3 112 8 116 10 11
108 -1 132 -16z m290 -18 c0 -13 7 -20 20 -20 11 0 20 -7 20 -15 0 -8 -9 -15
-20 -15 -18 0 -20 -7 -20 -55 0 -30 5 -56 10 -56 6 -1 15 -2 22 -3 6 0 13 -7
16 -13 2 -9 -8 -13 -32 -13 -42 0 -56 23 -56 94 0 23 -5 47 -10 52 -8 8 -6 15
5 24 8 7 15 19 15 26 0 8 7 14 15 14 8 0 15 -9 15 -20z m3110 -5 c0 -8 9 -15
19 -15 11 0 23 -4 26 -10 4 -6 -5 -10 -20 -10 -26 0 -26 -1 -23 -62 3 -57 5
-63 26 -66 33 -5 27 -22 -8 -22 -38 0 -50 23 -50 94 0 32 -4 56 -10 56 -12 0
21 49 33 50 4 0 7 -7 7 -15z m-4550 -27 c0 -9 3 -9 12 0 17 17 58 15 58 -2 0
-8 -10 -16 -22 -18 -29 -4 -48 -42 -48 -95 0 -32 -4 -43 -15 -43 -12 0 -15 16
-15 85 0 69 3 85 15 85 8 0 15 -5 15 -12z m212 -5 c10 -9 18 -29 18 -45 0 -27
-1 -28 -55 -28 -59 0 -60 -1 -45 -31 8 -14 21 -19 56 -19 61 0 54 -24 -8 -28
-37 -2 -50 1 -67 19 -32 35 -25 116 13 141 20 13 69 8 88 -9z m250 0 c10 -9
18 -29 18 -45 0 -27 -1 -28 -55 -28 -59 0 -60 -1 -45 -31 8 -14 21 -19 56 -19
61 0 54 -24 -8 -28 -37 -2 -50 1 -67 19 -32 35 -25 116 13 141 20 13 69 8 88
-9z m178 -2 c5 -11 10 -49 10 -84 l0 -64 -62 1 c-59 1 -63 3 -72 28 -13 37 14
68 60 68 39 0 54 18 29 36 -11 9 -25 10 -41 4 -14 -6 -26 -6 -29 0 -12 19 7
30 50 30 34 0 47 -5 55 -19z m160 3 c0 -11 -8 -15 -27 -14 -67 5 -74 -19 -13
-43 34 -13 40 -20 40 -45 0 -40 -20 -54 -72 -50 -31 2 -44 8 -46 20 -3 14 1
16 28 8 58 -16 87 20 33 41 -88 33 -79 99 13 99 33 0 44 -4 44 -16z m152 -1
c10 -9 18 -29 18 -45 0 -27 -1 -28 -55 -28 -59 0 -60 -1 -45 -31 8 -14 21 -19
56 -19 61 0 54 -24 -8 -28 -37 -2 -50 1 -67 19 -32 35 -25 116 13 141 20 13
69 8 88 -9z m398 -2 c5 -11 10 -49 10 -84 l0 -64 -62 1 c-59 1 -63 3 -72 28
-13 37 14 68 60 68 39 0 54 18 29 36 -11 9 -25 10 -41 4 -14 -6 -26 -6 -29 0
-12 19 7 30 50 30 34 0 47 -5 55 -19z m279 6 c6 -8 14 -28 17 -45 l7 -32 -57
0 c-39 0 -56 -4 -56 -13 0 -23 23 -37 62 -37 27 0 38 -4 38 -15 0 -11 -12 -15
-48 -15 -63 0 -85 22 -85 85 0 58 23 85 73 85 21 0 43 -6 49 -13z m2825 -3
c18 -18 23 -154 6 -154 -5 0 -10 5 -10 10 0 7 -6 7 -19 0 -26 -14 -64 -13 -79
2 -33 33 4 88 59 88 34 0 41 8 28 32 -9 16 -17 19 -45 13 -19 -3 -34 -2 -34 4
0 24 72 28 94 5z m286 -4 c11 -11 20 -31 20 -45 0 -24 -3 -25 -55 -25 -60 0
-70 -13 -35 -45 14 -13 28 -16 51 -11 22 4 29 2 27 -7 -3 -6 -21 -13 -41 -15
-29 -3 -42 3 -63 23 -23 23 -26 32 -21 68 9 70 73 101 117 57z m7580 -54 l0
-44 29 11 c22 8 36 8 55 -1 25 -11 26 -16 26 -87 0 -43 -4 -75 -10 -75 -5 0
-10 25 -10 56 0 88 -27 117 -70 74 -15 -15 -20 -33 -20 -75 0 -30 -4 -55 -10
-55 -6 0 -10 47 -10 120 0 73 4 120 10 120 6 0 10 -20 10 -44z m-2643 -56 c19
-37 17 -140 -2 -140 -11 0 -15 11 -15 39 0 21 -3 53 -6 70 -5 26 -11 31 -35
31 -35 0 -40 -8 -46 -81 -4 -40 -10 -59 -19 -59 -11 0 -14 20 -14 84 l0 83 62
-1 c56 -1 64 -4 75 -26z m173 11 c5 -11 10 -49 10 -84 l0 -64 -62 1 c-59 1
-63 3 -72 28 -13 37 14 68 60 68 39 0 54 18 29 36 -11 9 -25 10 -41 4 -14 -6
-26 -6 -29 0 -12 19 7 30 50 30 34 0 47 -5 55 -19z m172 6 c6 -9 10 -9 20 1
15 15 70 16 86 0 7 -7 12 -42 12 -85 0 -57 -3 -73 -15 -73 -11 0 -15 16 -17
68 -3 62 -5 67 -27 70 -32 5 -41 -12 -41 -80 0 -45 -3 -58 -15 -58 -12 0 -15
13 -15 58 0 68 -9 85 -41 80 -26 -3 -36 -29 -38 -95 -1 -31 -5 -43 -16 -43
-12 0 -15 16 -15 83 l0 83 57 2 c36 1 60 -3 65 -11z m280 -4 c10 -9 18 -29 18
-45 0 -27 -1 -28 -55 -28 -59 0 -60 -1 -45 -31 8 -14 21 -19 56 -19 61 0 54
-24 -8 -28 -37 -2 -50 1 -67 19 -32 35 -25 116 13 141 20 13 69 8 88 -9z
m1422 -45 c12 -31 24 -59 27 -62 2 -3 15 24 28 60 13 37 29 64 37 64 10 0 6
-20 -17 -82 -34 -94 -33 -92 -52 -85 -13 5 -67 133 -67 158 0 28 26 -3 44 -53z
m243 32 c15 -29 17 -140 4 -140 -6 0 -13 5 -17 11 -4 8 -9 8 -17 0 -12 -12
-56 -14 -73 -3 -6 4 -14 17 -18 29 -10 32 24 63 69 63 23 0 35 5 35 14 0 24
-27 38 -60 31 -18 -4 -30 -3 -30 3 0 15 20 21 60 19 26 -2 38 -8 47 -27z m83
20 c0 -7 6 -7 19 0 28 14 51 12 51 -5 0 -8 -6 -12 -14 -9 -8 3 -24 -4 -35 -15
-16 -16 -21 -34 -21 -76 0 -30 -4 -55 -10 -55 -6 0 -10 35 -10 85 0 50 4 85
10 85 6 0 10 -5 10 -10z m208 -9 c3 -9 -2 -11 -17 -6 -14 4 -31 1 -46 -9 -54
-35 -15 -130 46 -111 15 5 20 3 17 -6 -3 -8 -21 -15 -40 -17 -29 -3 -40 2 -58
25 -28 36 -22 99 11 126 25 20 80 20 87 -2z m339 -11 c15 -29 17 -140 4 -140
-6 0 -13 5 -17 11 -4 8 -9 8 -17 0 -12 -12 -56 -14 -73 -3 -6 4 -14 17 -18 29
-10 32 24 63 69 63 23 0 35 5 35 14 0 24 -27 38 -60 31 -18 -4 -30 -3 -30 3 0
15 20 21 60 19 26 -2 38 -8 47 -27z m83 20 c0 -7 6 -7 19 0 28 14 51 12 51 -5
0 -8 -6 -12 -14 -9 -8 3 -24 -4 -35 -15 -16 -16 -21 -34 -21 -76 0 -30 -4 -55
-10 -55 -6 0 -10 35 -10 85 0 50 4 85 10 85 6 0 10 -5 10 -10z m-12570 -718
l0 -118 -53 -2 c-68 -3 -90 18 -90 83 0 61 24 88 75 83 38 -4 38 -3 38 34 0
27 4 38 15 38 12 0 15 -20 15 -118z m675 88 c0 -22 -29 -18 -33 3 -3 14 1 18
15 15 10 -2 18 -10 18 -18z m3673 2 c2 -7 -3 -12 -12 -12 -9 0 -16 7 -16 16 0
17 22 14 28 -4z m-3778 -22 c0 -13 7 -20 20 -20 11 0 20 -7 20 -15 0 -8 -9
-15 -20 -15 -18 0 -20 -7 -20 -55 0 -30 5 -56 10 -56 6 -1 15 -2 22 -3 6 0 13
-7 16 -13 2 -9 -8 -13 -32 -13 -42 0 -56 23 -56 94 0 23 -5 47 -10 52 -8 8 -6
15 5 24 8 7 15 19 15 26 0 8 7 14 15 14 8 0 15 -9 15 -20z m4040 -5 c0 -9 9
-15 25 -15 31 0 33 -17 3 -22 -19 -2 -24 -10 -26 -45 -3 -47 11 -83 33 -83 8
0 15 -4 15 -10 0 -14 -43 -13 -58 2 -7 7 -12 38 -12 70 0 42 -4 59 -16 66 -15
8 -15 10 0 15 9 4 16 13 16 22 0 8 5 15 10 15 6 0 10 -7 10 -15z m-4530 -69
c0 -72 6 -86 40 -86 34 0 40 14 40 87 0 46 3 54 18 51 14 -3 17 -16 20 -84 l3
-80 -60 -2 c-52 -1 -62 1 -76 20 -21 31 -21 148 0 148 11 0 15 -13 15 -54z
m260 38 c0 -8 -10 -14 -25 -14 -32 0 -45 -26 -45 -89 0 -39 -4 -51 -15 -51
-12 0 -15 16 -15 83 l0 84 50 1 c37 1 50 -3 50 -14z m140 -3 c5 -11 10 -49 10
-84 l0 -64 -62 1 c-59 1 -63 3 -72 28 -13 37 14 68 60 68 39 0 54 18 29 36
-11 9 -25 10 -41 4 -14 -6 -26 -6 -29 0 -12 19 7 30 50 30 34 0 47 -5 55 -19z
m190 -66 c0 -69 -3 -85 -15 -85 -12 0 -15 16 -15 85 0 69 3 85 15 85 12 0 15
-16 15 -85z m180 63 c28 -30 27 -94 -2 -125 -32 -34 -92 -32 -115 4 -22 34
-21 97 2 123 25 28 88 27 115 -2z m186 11 c20 -17 19 -159 -1 -159 -11 0 -15
16 -17 68 -3 61 -5 67 -26 70 -39 6 -52 -15 -52 -79 0 -46 -3 -59 -15 -59 -12
0 -15 16 -15 84 l0 83 56 2 c32 0 63 -4 70 -10z m3314 -74 c0 -69 -3 -85 -15
-85 -12 0 -15 16 -15 85 0 69 3 85 15 85 12 0 15 -16 15 -85z m70 76 c0 -5 13
-4 29 2 22 8 36 8 55 -1 25 -11 26 -16 26 -87 0 -43 -4 -75 -10 -75 -5 0 -10
25 -10 56 0 64 -13 94 -40 94 -30 0 -50 -39 -50 -97 0 -29 -4 -53 -10 -53 -6
0 -10 35 -10 85 0 50 4 85 10 85 6 0 10 -4 10 -9z m5040 -60 l0 -39 44 5 c37
5 46 2 60 -18 9 -14 16 -43 16 -70 0 -63 -19 -79 -93 -77 l-57 2 0 118 c0 98
3 118 15 118 11 0 15 -11 15 -39z m500 1 l0 -38 47 0 c40 1 49 -3 60 -24 19
-37 17 -140 -2 -140 -11 0 -15 11 -15 39 0 21 -3 53 -6 70 -5 26 -11 31 -35
31 -35 0 -40 -8 -46 -81 -4 -40 -10 -59 -19 -59 -11 0 -14 25 -14 120 0 100 3
120 15 120 11 0 15 -11 15 -38z m300 -80 l0 -118 -53 -2 c-68 -3 -90 18 -90
83 0 61 24 88 75 83 38 -4 38 -3 38 34 0 27 4 38 15 38 12 0 15 -20 15 -118z
m1908 -5 c3 -113 -1 -130 -25 -106 -8 8 -13 8 -17 0 -12 -19 -62 -12 -82 10
-12 14 -19 36 -19 64 0 28 7 50 19 64 21 23 65 28 84 9 9 -9 12 -1 12 36 0 34
4 46 13 44 8 -3 13 -39 15 -121z m-2513 93 c0 -22 -29 -18 -33 3 -3 14 1 18
15 15 10 -2 18 -10 18 -18z m205 -20 c0 -15 7 -20 25 -20 16 0 25 -6 25 -15 0
-9 -10 -15 -26 -15 -24 0 -25 -2 -22 -52 3 -46 6 -53 26 -56 33 -5 28 -32 -6
-32 -41 0 -52 17 -52 82 0 32 -4 58 -10 58 -5 0 -10 7 -10 15 0 8 4 15 9 15 5
0 13 9 16 20 3 11 11 20 16 20 5 0 9 -9 9 -20z m2560 -5 c0 -8 9 -15 19 -15
11 0 23 -4 26 -10 4 -6 -5 -10 -20 -10 -26 0 -26 -1 -23 -62 3 -57 5 -63 26
-66 33 -5 27 -22 -8 -22 -38 0 -50 23 -50 94 0 32 -4 56 -10 56 -12 0 21 49
33 50 4 0 7 -7 7 -15z m-2770 -100 c0 -69 -3 -85 -15 -85 -12 0 -15 16 -15 85
0 69 3 85 15 85 12 0 15 -16 15 -85z m150 69 c0 -8 -10 -14 -25 -14 -32 0 -45
-26 -45 -89 0 -39 -4 -51 -15 -51 -12 0 -15 16 -15 83 l0 84 50 1 c37 1 50 -3
50 -14z m630 -3 c5 -11 10 -49 10 -84 l0 -64 -62 1 c-59 1 -63 3 -72 28 -13
37 14 68 60 68 39 0 54 18 29 36 -11 9 -25 10 -41 4 -14 -6 -26 -6 -29 0 -12
19 7 30 50 30 34 0 47 -5 55 -19z m85 -45 c24 -65 25 -64 49 12 13 38 23 52
37 52 16 0 17 -3 8 -27 -6 -16 -24 -64 -40 -108 -17 -43 -35 -85 -41 -92 -12
-15 -68 -18 -68 -3 0 6 7 10 15 10 8 0 22 11 31 25 15 24 15 29 -15 102 -36
90 -37 96 -14 91 9 -2 25 -27 38 -62z m1809 48 c18 -18 23 -154 6 -154 -5 0
-10 5 -10 10 0 7 -6 7 -19 0 -26 -14 -64 -13 -79 2 -33 33 4 88 59 88 34 0 41
8 28 32 -9 16 -17 19 -45 13 -19 -3 -34 -2 -34 4 0 24 72 28 94 5z m286 -4
c11 -11 20 -31 20 -45 0 -24 -3 -25 -55 -25 -60 0 -70 -13 -35 -45 14 -13 28
-16 51 -11 22 4 29 2 27 -7 -3 -6 -21 -13 -41 -15 -29 -3 -42 3 -63 23 -23 23
-26 32 -21 68 9 70 73 101 117 57z m-8370 -641 c3 -27 8 -39 13 -31 14 20 64
14 81 -10 22 -31 22 -148 1 -148 -12 0 -15 14 -15 63 0 81 -26 110 -64 71 -11
-10 -16 -34 -16 -75 0 -46 -3 -59 -15 -59 -13 0 -15 20 -15 121 0 92 3 120 13
117 6 -3 14 -24 17 -49z m-4240 -29 c0 -5 -4 -10 -10 -10 -5 0 -10 -16 -10
-35 0 -36 -20 -55 -59 -55 -12 0 -21 -7 -21 -15 0 -11 11 -15 38 -15 42 0 62
-14 62 -44 0 -36 -29 -56 -81 -56 -68 0 -100 37 -64 74 8 8 12 21 9 29 -3 8
-1 18 5 22 7 4 6 14 -4 29 -15 23 -12 47 8 74 11 15 127 17 127 2z m142 -7
c10 -9 18 -29 18 -45 0 -27 -1 -28 -55 -28 -59 0 -60 -1 -45 -31 8 -14 21 -19
56 -19 61 0 54 -24 -8 -28 -37 -2 -50 1 -67 19 -32 35 -25 116 13 141 20 13
69 8 88 -9z m195 -13 c19 -37 17 -140 -2 -140 -11 0 -15 11 -15 39 0 21 -3 53
-6 70 -5 26 -11 31 -35 31 -35 0 -40 -8 -46 -81 -4 -40 -10 -59 -19 -59 -11 0
-14 20 -14 84 l0 83 62 -1 c56 -1 64 -4 75 -26z m153 14 c0 -8 -10 -14 -25
-14 -32 0 -45 -26 -45 -89 0 -39 -4 -51 -15 -51 -12 0 -15 16 -15 83 l0 84 50
1 c37 1 50 -3 50 -14z m142 -1 c10 -9 18 -29 18 -45 0 -27 -1 -28 -55 -28 -59
0 -60 -1 -45 -31 8 -14 21 -19 56 -19 61 0 54 -24 -8 -28 -37 -2 -50 1 -67 19
-32 35 -25 116 13 141 20 13 69 8 88 -9z m3008 -49 c12 -36 26 -62 30 -57 4 4
15 32 25 60 16 51 30 71 42 60 9 -10 -54 -162 -69 -165 -13 -2 -31 33 -74 151
-4 11 -1 17 9 17 10 0 23 -23 37 -66z m237 36 c15 -29 17 -140 4 -140 -6 0
-13 5 -17 11 -4 8 -9 8 -17 0 -12 -12 -56 -14 -73 -3 -6 4 -14 17 -18 29 -10
32 24 63 69 63 23 0 35 5 35 14 0 24 -27 38 -60 31 -18 -4 -30 -3 -30 3 0 15
20 21 60 19 26 -2 38 -8 47 -27z m83 20 c0 -7 6 -7 19 0 28 14 51 12 51 -5 0
-8 -6 -12 -14 -9 -8 3 -24 -4 -35 -15 -16 -16 -21 -34 -21 -76 0 -30 -4 -55
-10 -55 -6 0 -10 35 -10 85 0 50 4 85 10 85 6 0 10 -5 10 -10z m212 -5 c-1 -5
-10 -10 -20 -11 -9 -1 -24 -2 -34 -3 -22 -2 -40 -55 -28 -86 9 -25 50 -42 69
-30 6 3 11 -1 11 -9 0 -12 -10 -16 -35 -16 -50 0 -75 28 -75 85 0 59 26 87 78
83 20 -2 36 -7 34 -13z m332 -1 c18 -18 23 -154 6 -154 -5 0 -10 5 -10 10 0 7
-6 7 -19 0 -26 -14 -64 -13 -79 2 -33 33 4 88 59 88 34 0 41 8 28 32 -9 16
-17 19 -45 13 -19 -3 -34 -2 -34 4 0 24 72 28 94 5z m89 4 c3 -10 7 -10 20 0
9 8 26 12 39 10 21 -3 20 -5 -14 -25 -37 -22 -38 -24 -38 -83 0 -47 -3 -60
-15 -60 -12 0 -15 16 -15 85 0 47 4 85 9 85 5 0 11 -6 14 -12z m4621 -466 c8
-13 -12 -37 -30 -37 -10 0 -19 -6 -21 -12 -3 -8 4 -13 16 -13 14 0 21 -6 21
-20 0 -13 -7 -20 -20 -20 -18 0 -20 -7 -20 -65 0 -63 -1 -65 -25 -65 -24 0
-25 3 -25 61 0 47 -4 65 -17 75 -17 13 -17 15 0 28 9 7 17 22 17 33 0 10 5 24
12 31 13 13 84 16 92 4z m199 -4 c7 -21 -4 -38 -23 -38 -23 0 -34 16 -26 35 7
18 43 20 49 3z m577 -107 l0 -119 -62 -1 c-81 0 -98 14 -98 83 0 28 4 56 8 62
13 21 52 35 77 28 23 -6 25 -4 25 30 0 32 3 36 25 36 l25 0 0 -119z m-1373 46
c3 -3 2 -14 -1 -24 -5 -15 -13 -18 -36 -15 -39 6 -38 -1 5 -27 27 -16 35 -27
35 -49 0 -41 -20 -54 -77 -50 -41 3 -48 6 -51 26 -3 21 -1 22 37 16 51 -8 52
5 3 31 -73 39 -43 112 41 102 21 -3 41 -8 44 -10z m171 -10 c7 -8 15 -30 15
-48 l2 -34 -54 -5 c-48 -4 -52 -7 -38 -19 11 -9 28 -11 53 -7 33 7 35 6 32
-16 -3 -20 -9 -23 -55 -26 -70 -4 -93 18 -93 87 0 42 4 53 27 71 31 24 85 22
111 -3z m162 0 c0 -16 -9 -26 -30 -34 -28 -11 -30 -14 -30 -67 0 -53 -1 -56
-25 -56 -25 0 -25 1 -25 85 0 78 2 85 20 85 11 0 20 -5 20 -11 0 -5 10 -3 22
5 31 22 48 20 48 -7z m384 14 c9 -14 -4 -41 -20 -41 -22 0 -44 -42 -44 -87 0
-39 -2 -43 -25 -43 -25 0 -25 1 -25 86 l0 87 28 -6 c15 -3 34 -2 42 4 19 11
37 11 44 0z m240 -12 c19 -15 26 -30 26 -55 l0 -34 -51 0 c-36 0 -49 -4 -46
-12 2 -8 21 -13 46 -12 37 1 42 -2 39 -20 -3 -18 -11 -21 -54 -24 -46 -3 -54
0 -73 24 -66 84 30 198 113 133z m211 0 c5 -5 11 -43 13 -84 l4 -75 -31 0 -31
0 0 66 c0 62 -1 65 -22 62 -21 -3 -23 -9 -26 -65 -3 -59 -4 -63 -27 -63 -25 0
-25 1 -25 86 0 86 0 86 24 82 14 -3 31 -1 38 4 15 10 68 2 83 -13z m362 8 c3
-3 2 -14 -1 -24 -5 -15 -13 -18 -36 -15 -39 6 -38 -1 5 -27 27 -16 35 -27 35
-49 0 -41 -20 -54 -77 -50 -41 3 -48 6 -51 26 -3 21 -1 22 37 16 51 -8 52 5 3
31 -73 39 -43 112 41 102 21 -3 41 -8 44 -10z m-1797 -46 c0 -58 7 -81 26 -81
20 0 34 34 34 84 0 42 2 46 25 46 25 0 25 -1 25 -84 l0 -83 -62 -1 c-86 -1
-98 11 -98 100 0 66 1 68 25 68 23 0 25 -3 25 -49z m1060 -36 c0 -84 0 -85
-25 -85 -25 0 -25 1 -25 85 0 84 0 85 25 85 25 0 25 -1 25 -85z m-5170 -136
c3 -27 8 -39 13 -31 14 20 64 14 81 -10 22 -31 22 -148 1 -148 -12 0 -15 14
-15 63 0 81 -26 110 -64 71 -11 -10 -16 -34 -16 -75 0 -46 -3 -59 -15 -59 -13
0 -15 20 -15 121 0 92 3 120 13 117 6 -3 14 -24 17 -49z m-3942 24 c-5 -25
-28 -28 -28 -4 0 12 6 21 16 21 9 0 14 -7 12 -17z m8785 -8 c-2 -5 -32 -11
-68 -13 -54 -2 -65 0 -65 13 0 13 11 15 68 13 38 -2 66 -7 65 -13z m-8893 -15
c0 -15 7 -20 25 -20 16 0 25 -6 25 -15 0 -9 -10 -15 -26 -15 -24 0 -25 -2 -22
-52 3 -46 6 -53 26 -56 33 -5 28 -32 -6 -32 -41 0 -52 17 -52 82 0 32 -4 58
-10 58 -5 0 -10 7 -10 15 0 8 4 15 9 15 5 0 13 9 16 20 3 11 11 20 16 20 5 0
9 -9 9 -20z m-300 -32 c0 -9 3 -9 12 0 17 17 58 15 58 -2 0 -8 -10 -16 -22
-18 -29 -4 -48 -42 -48 -95 0 -32 -4 -43 -15 -43 -12 0 -15 16 -15 85 0 69 3
85 15 85 8 0 15 -5 15 -12z m208 0 c7 -7 12 -41 12 -83 l0 -71 -51 -2 c-60 -2
-79 9 -79 49 0 33 23 49 69 49 24 0 31 4 31 19 0 24 -17 30 -52 20 -19 -5 -28
-3 -32 6 -3 8 0 16 7 19 24 9 83 6 95 -6z m202 -73 c0 -69 -3 -85 -15 -85 -12
0 -15 16 -15 85 0 69 3 85 15 85 12 0 15 -16 15 -85z m176 74 c20 -17 19 -159
-1 -159 -11 0 -15 16 -17 68 -3 61 -5 67 -26 70 -39 6 -52 -15 -52 -79 0 -46
-3 -59 -15 -59 -12 0 -15 16 -15 84 l0 83 56 2 c32 0 63 -4 70 -10z m194 1 c0
-5 -4 -10 -10 -10 -5 0 -10 -16 -10 -35 0 -36 -20 -55 -59 -55 -12 0 -21 -7
-21 -15 0 -11 11 -15 38 -15 42 0 62 -14 62 -44 0 -36 -29 -56 -81 -56 -68 0
-100 37 -64 74 8 8 12 21 9 29 -3 8 -1 18 5 22 7 4 6 14 -4 29 -15 23 -12 47
8 74 11 15 127 17 127 2z m2970 -56 c12 -36 26 -62 30 -57 4 4 15 32 25 60 16
51 30 71 42 60 9 -10 -54 -162 -69 -165 -13 -2 -31 33 -74 151 -4 11 -1 17 9
17 10 0 23 -23 37 -66z m237 36 c15 -29 17 -140 4 -140 -6 0 -13 5 -17 11 -4
8 -9 8 -17 0 -12 -12 -56 -14 -73 -3 -6 4 -14 17 -18 29 -10 32 24 63 69 63
23 0 35 5 35 14 0 24 -27 38 -60 31 -18 -4 -30 -3 -30 3 0 15 20 21 60 19 26
-2 38 -8 47 -27z m83 20 c0 -7 6 -7 19 0 28 14 51 12 51 -5 0 -8 -6 -12 -14
-9 -8 3 -24 -4 -35 -15 -16 -16 -21 -34 -21 -76 0 -30 -4 -55 -10 -55 -6 0
-10 35 -10 85 0 50 4 85 10 85 6 0 10 -5 10 -10z m212 -5 c-1 -5 -10 -10 -20
-11 -9 -1 -24 -2 -34 -3 -22 -2 -40 -55 -28 -86 9 -25 50 -42 69 -30 6 3 11
-1 11 -9 0 -12 -10 -16 -35 -16 -50 0 -75 28 -75 85 0 59 26 87 78 83 20 -2
36 -7 34 -13z m332 -1 c18 -18 23 -154 6 -154 -5 0 -10 5 -10 10 0 7 -6 7 -19
0 -26 -14 -64 -13 -79 2 -33 33 4 88 59 88 34 0 41 8 28 32 -9 16 -17 19 -45
13 -19 -3 -34 -2 -34 4 0 24 72 28 94 5z m89 4 c3 -10 7 -10 20 0 9 8 26 12
39 10 21 -3 20 -5 -14 -25 -37 -22 -38 -24 -38 -83 0 -47 -3 -60 -15 -60 -12
0 -15 16 -15 85 0 47 4 85 9 85 5 0 11 -6 14 -12z m8517 -319 c0 -29 2 -30 29
-24 21 4 30 2 35 -10 4 -11 -2 -17 -25 -22 -27 -5 -28 -7 -14 -23 19 -21 19
-36 0 -44 -10 -4 -20 3 -27 20 l-12 25 -13 -25 c-8 -16 -19 -23 -28 -20 -20 8
-19 28 1 45 15 12 14 14 -7 19 -13 3 -25 14 -27 24 -3 15 1 17 27 11 29 -6 31
-5 31 24 0 21 5 31 15 31 10 0 15 -10 15 -31z m-3820 -257 l0 -118 -60 -2
c-51 -1 -61 1 -75 20 -20 29 -19 97 1 127 14 19 24 22 60 19 l44 -3 0 37 c0
27 4 38 15 38 12 0 15 -20 15 -118z m-192 91 c-5 -25 -28 -28 -28 -4 0 12 6
21 16 21 9 0 14 -7 12 -17z m3280 -1 c2 -7 -3 -12 -12 -12 -9 0 -16 7 -16 16
0 17 22 14 28 -4z m262 -27 c0 -9 9 -15 25 -15 31 0 33 -17 3 -22 -19 -2 -24
-10 -26 -45 -3 -47 11 -83 33 -83 8 0 15 -4 15 -10 0 -14 -43 -13 -58 2 -7 7
-12 38 -12 70 0 42 -4 59 -16 66 -15 8 -15 10 0 15 9 4 16 13 16 22 0 8 5 15
10 15 6 0 10 -7 10 -15z m-4310 -69 c0 -72 6 -86 40 -86 34 0 40 14 40 87 0
46 3 54 18 51 14 -3 17 -16 20 -84 l3 -80 -60 -2 c-52 -1 -62 1 -76 20 -21 31
-21 148 0 148 11 0 15 -13 15 -54z m262 39 c-1 -5 -18 -10 -37 -10 -63 -1 -59
-16 14 -57 21 -12 31 -25 31 -41 0 -35 -19 -47 -72 -47 -41 0 -48 3 -48 19 0
17 4 18 28 11 31 -8 66 5 57 21 -4 5 -24 18 -46 29 -41 21 -52 53 -27 78 15
15 104 12 100 -3z m160 -2 c10 -9 18 -29 18 -45 0 -27 -1 -28 -55 -28 -59 0
-60 -1 -45 -31 8 -14 21 -19 56 -19 61 0 54 -24 -8 -28 -37 -2 -50 1 -67 19
-32 35 -25 116 13 141 20 13 69 8 88 -9z m158 1 c0 -8 -10 -14 -25 -14 -32 0
-45 -26 -45 -89 0 -39 -4 -51 -15 -51 -12 0 -15 16 -15 83 l0 84 50 1 c37 1
50 -3 50 -14z m190 -69 c0 -69 -3 -85 -15 -85 -12 0 -15 16 -15 85 0 69 3 85
15 85 12 0 15 -16 15 -85z m3280 0 c0 -69 -3 -85 -15 -85 -12 0 -15 16 -15 85
0 69 3 85 15 85 12 0 15 -16 15 -85z m73 73 c4 -10 7 -10 18 0 18 17 59 15 81
-5 24 -22 27 -153 3 -153 -12 0 -15 14 -15 64 0 75 -15 96 -55 78 -23 -11 -25
-17 -25 -77 0 -51 -3 -65 -15 -65 -12 0 -15 16 -15 85 0 76 10 108 23 73z
m-3405 -190 c-3 -8 -29 -14 -71 -16 -55 -2 -67 0 -67 13 0 12 14 15 71 15 52
0 70 -3 67 -12z m4062 -369 c0 -29 2 -30 29 -24 21 4 30 2 35 -10 4 -11 -2
-17 -25 -22 -27 -5 -28 -7 -14 -23 19 -21 19 -36 0 -44 -10 -4 -20 3 -27 20
l-12 25 -13 -25 c-8 -16 -19 -23 -28 -20 -20 8 -19 28 1 45 15 12 14 14 -7 19
-13 3 -25 14 -27 24 -3 15 1 17 27 11 29 -6 31 -5 31 24 0 21 5 31 15 31 10 0
15 -10 15 -31z m-10932 -162 c4 -22 -25 -34 -49 -18 -11 6 -19 7 -19 2 0 -5
-7 -8 -16 -7 -9 0 -19 -5 -21 -11 -3 -8 4 -13 16 -13 27 0 28 -30 1 -37 -17
-5 -20 -14 -20 -69 l0 -64 -30 0 -30 0 0 65 c0 37 -4 65 -10 65 -5 0 -10 9
-10 20 0 11 5 20 10 20 6 0 10 8 10 17 0 9 8 25 17 35 23 26 146 22 151 -5z
m92 -97 l0 -120 -25 0 -25 0 0 120 0 120 25 0 25 0 0 -120z m520 0 l0 -120
-25 0 -25 0 0 120 0 120 25 0 25 0 0 -120z m95 95 c0 -25 -40 -33 -49 -10 -9
24 2 37 27 33 14 -2 22 -10 22 -23z m95 -37 l0 -62 29 28 c20 19 37 27 55 24
l27 -3 -29 -35 -29 -34 34 -48 35 -48 -31 0 c-22 0 -36 8 -53 30 -12 17 -25
30 -30 30 -4 0 -8 -13 -8 -30 0 -25 -4 -30 -25 -30 l-25 0 0 120 0 120 25 0
c24 0 25 -3 25 -62z m5420 47 c0 -9 -9 -15 -25 -15 -14 0 -25 -2 -25 -4 0 -2
-3 -11 -6 -20 -4 -12 0 -16 15 -16 12 0 21 -6 21 -15 0 -8 -9 -15 -20 -15 -18
0 -20 -7 -20 -70 0 -56 -3 -70 -15 -70 -12 0 -15 14 -15 70 0 56 -3 70 -15 70
-8 0 -15 5 -15 10 0 6 7 13 15 16 8 4 15 13 15 21 0 33 21 53 55 53 24 0 35
-5 35 -15z m710 -104 l0 -118 -59 -2 c-51 -1 -62 2 -75 21 -21 29 -20 97 0
127 14 19 24 22 60 19 l44 -3 0 37 c0 27 4 38 15 38 12 0 15 -20 15 -119z
m400 0 l0 -118 -59 -2 c-51 -1 -62 2 -75 21 -21 29 -20 97 0 127 14 19 24 22
60 19 l44 -3 0 37 c0 27 4 38 15 38 12 0 15 -20 15 -119z m-950 95 c0 -21 -21
-31 -30 -15 -5 7 -6 17 -4 21 9 14 34 9 34 -6z m760 0 c0 -21 -21 -31 -30 -15
-5 7 -6 17 -4 21 9 14 34 9 34 -6z m3055 -4 c0 -18 -20 -15 -23 4 -3 10 1 15
10 12 7 -3 13 -10 13 -16z m291 -42 c30 0 32 -18 2 -22 -19 -2 -24 -10 -26
-45 -3 -47 11 -83 33 -83 8 0 15 -4 15 -10 0 -14 -43 -13 -58 2 -7 7 -12 38
-12 70 0 45 -4 60 -16 65 -15 5 -15 8 -2 17 8 6 18 20 23 31 8 19 9 19 12 -2
3 -17 11 -23 29 -23z m-10232 0 c17 -6 36 -6 56 1 24 9 35 8 55 -5 23 -15 25
-23 25 -91 0 -73 -1 -75 -25 -75 -23 0 -24 4 -27 63 -3 54 -5 62 -23 62 -18 0
-20 -8 -23 -63 -3 -62 -3 -63 -30 -60 -26 3 -27 6 -30 66 -2 47 -7 62 -18 62
-19 0 -34 -40 -34 -91 0 -35 -3 -39 -25 -39 -25 0 -25 1 -25 85 l0 86 35 -3
c19 -1 37 1 41 5 10 9 18 9 48 -3z m814 -13 c7 -8 15 -30 15 -48 l2 -34 -54
-5 c-48 -4 -52 -7 -38 -19 11 -9 28 -11 53 -7 33 7 35 6 32 -16 -3 -20 -9 -23
-55 -26 -70 -4 -93 18 -93 87 0 42 4 53 27 71 31 24 85 22 111 -3z m169 10 c3
-3 2 -14 -1 -24 -5 -15 -13 -18 -36 -15 -39 6 -38 -1 5 -27 27 -16 35 -27 35
-49 0 -41 -20 -54 -77 -50 -41 3 -48 6 -51 26 -3 21 -1 22 37 16 51 -8 52 5 3
31 -73 39 -43 112 41 102 21 -3 41 -8 44 -10z m-1237 -82 l0 -85 -30 0 -30 0
0 85 0 85 30 0 30 0 0 -85z m710 0 c0 -84 0 -85 -25 -85 -25 0 -25 1 -25 85 0
84 0 85 25 85 25 0 25 -1 25 -85z m5540 73 c0 -9 3 -9 12 0 17 17 58 15 58 -3
0 -8 -8 -15 -18 -15 -31 0 -42 -22 -42 -82 0 -51 -2 -58 -20 -58 -18 0 -20 7
-20 85 0 69 3 85 15 85 8 0 15 -5 15 -12z m130 -73 c0 -69 -3 -85 -15 -85 -12
0 -15 16 -15 85 0 69 3 85 15 85 12 0 15 -16 15 -85z m162 68 c8 -10 18 -30
22 -45 6 -28 6 -28 -47 -28 -61 0 -70 -5 -56 -31 7 -14 21 -19 55 -19 62 0 54
-24 -9 -28 -36 -2 -51 2 -66 17 -29 29 -29 103 -1 131 25 25 81 27 102 3z
m184 6 c20 -17 19 -159 -1 -159 -11 0 -15 16 -17 68 -3 61 -5 67 -26 70 -39 6
-52 -15 -52 -79 0 -46 -3 -59 -15 -59 -12 0 -15 16 -15 84 l0 83 56 2 c32 0
63 -4 70 -10z m414 -74 c0 -69 -3 -85 -15 -85 -12 0 -15 16 -15 85 0 69 3 85
15 85 12 0 15 -16 15 -85z m3060 0 c0 -69 -3 -85 -15 -85 -12 0 -15 16 -15 85
0 69 3 85 15 85 12 0 15 -16 15 -85z m70 75 c0 -7 6 -7 19 0 29 15 67 12 85
-6 22 -22 23 -154 1 -154 -12 0 -15 14 -15 63 0 81 -26 110 -64 71 -11 -10
-16 -34 -16 -75 0 -46 -3 -59 -15 -59 -12 0 -15 16 -15 85 0 50 4 85 10 85 6
0 10 -5 10 -10z m-9727 -195 c-2 -5 -32 -11 -68 -13 -54 -2 -65 0 -65 13 0 13
11 15 68 13 38 -2 66 -7 65 -13z m6547 0 c0 -12 -14 -15 -70 -15 -56 0 -70 3
-70 15 0 12 14 15 70 15 56 0 70 -3 70 -15z m-4172 -365 c-4 -30 -4 -30 30
-24 30 6 34 4 30 -12 -2 -11 -13 -20 -26 -22 -22 -3 -22 -5 -8 -27 13 -20 13
-25 1 -35 -11 -9 -17 -7 -27 9 -16 26 -25 26 -33 1 -5 -16 -10 -18 -26 -10
-18 10 -18 12 -3 35 15 22 14 24 -8 27 -13 2 -24 11 -26 22 -4 16 0 18 30 12
34 -6 34 -6 30 24 -4 26 -1 30 18 30 19 0 22 -4 18 -30z m-2956 -158 c4 -4 3
-14 -3 -22 -8 -13 -11 -13 -22 1 -8 10 -20 13 -37 9 -32 -7 -40 -40 -11 -40
27 0 27 -20 1 -27 -18 -5 -20 -14 -20 -74 0 -62 -2 -69 -20 -69 -18 0 -20 7
-20 70 0 40 -4 70 -10 70 -5 0 -10 7 -10 15 0 8 4 15 9 15 5 0 13 10 17 23 13
42 25 50 73 43 25 -3 49 -10 53 -14z m78 -102 c0 -100 -2 -120 -15 -120 -12 0
-15 20 -15 120 0 100 3 120 15 120 13 0 15 -20 15 -120z m690 2 l0 -118 -59
-2 c-73 -2 -96 18 -96 83 0 59 27 88 77 83 38 -4 38 -3 38 34 0 31 4 38 20 38
19 0 20 -7 20 -118z m6010 109 c0 -5 9 -7 20 -4 14 4 20 0 20 -10 0 -21 -20
-33 -30 -17 -11 18 -64 8 -68 -12 -2 -13 3 -18 17 -18 12 0 21 -6 21 -15 0 -8
-9 -15 -20 -15 -18 0 -20 -7 -20 -70 0 -56 -3 -70 -15 -70 -12 0 -15 14 -15
70 0 56 -3 70 -15 70 -8 0 -15 5 -15 10 0 6 7 13 15 16 8 4 15 13 15 22 0 26
31 52 62 52 15 0 28 -4 28 -9z m2670 -39 c4 -34 8 -40 20 -32 47 30 91 -5 92
-74 2 -72 -45 -106 -103 -76 -13 7 -19 7 -19 0 0 -5 -4 -10 -10 -10 -6 0 -10
47 -10 121 0 92 3 120 13 117 6 -3 14 -23 17 -46z m550 -72 c0 -73 -4 -120
-10 -120 -6 0 -10 47 -10 120 0 73 4 120 10 120 6 0 10 -47 10 -120z m-9420
96 c0 -21 -21 -31 -30 -15 -5 7 -6 17 -4 21 9 14 34 9 34 -6z m1640 -1 c0 -8
-7 -15 -15 -15 -16 0 -20 12 -8 23 11 12 23 8 23 -8z m5365 -5 c0 -22 -29 -18
-33 3 -3 14 1 18 15 15 10 -2 18 -10 18 -18z m-5095 -20 c0 -15 7 -20 25 -20
14 0 25 -4 25 -10 0 -5 -11 -10 -25 -10 -24 0 -25 -3 -25 -60 0 -55 2 -60 25
-66 34 -9 31 -24 -5 -24 -38 0 -50 23 -50 94 0 36 -4 56 -12 56 -6 0 -4 7 5
18 10 10 17 24 17 30 0 7 5 12 10 12 6 0 10 -9 10 -20z m4990 0 c0 -13 7 -20
20 -20 11 0 20 -7 20 -15 0 -8 -9 -15 -20 -15 -18 0 -20 -7 -20 -55 0 -30 5
-56 10 -56 6 -1 15 -2 22 -3 6 0 13 -7 16 -13 2 -9 -8 -13 -32 -13 -42 0 -56
23 -56 94 0 23 -5 47 -10 52 -8 8 -6 15 5 24 8 7 15 19 15 26 0 8 7 14 15 14
8 0 15 -9 15 -20z m-7480 -105 c0 -69 -3 -85 -15 -85 -12 0 -15 16 -15 85 0
69 3 85 15 85 12 0 15 -16 15 -85z m246 74 c8 -7 14 -7 19 1 3 5 24 10 45 10
50 0 60 -18 60 -104 0 -52 -3 -66 -15 -66 -11 0 -15 12 -15 48 0 71 -8 92 -36
92 -30 0 -44 -32 -44 -96 0 -32 -4 -44 -15 -44 -12 0 -15 14 -15 65 0 52 -4
67 -16 72 -33 12 -49 -11 -52 -76 -2 -45 -7 -61 -17 -61 -12 0 -15 17 -15 84
l0 83 52 2 c28 0 57 -4 64 -10z m334 -74 c0 -69 -3 -85 -15 -85 -12 0 -15 16
-15 85 0 69 3 85 15 85 12 0 15 -16 15 -85z m1640 0 c0 -50 -4 -85 -10 -85 -6
0 -10 35 -10 85 0 50 4 85 10 85 6 0 10 -35 10 -85z m70 75 c0 -7 6 -7 19 0
29 15 67 12 85 -6 22 -22 23 -154 1 -154 -12 0 -15 14 -15 63 0 81 -26 110
-64 71 -11 -10 -16 -34 -16 -75 0 -46 -3 -59 -15 -59 -12 0 -15 16 -15 85 0
50 4 85 10 85 6 0 10 -5 10 -10z m3990 -5 c0 -10 -10 -15 -33 -15 -41 0 -57
-15 -57 -55 0 -40 16 -55 58 -55 48 0 36 -24 -14 -28 -53 -4 -77 22 -77 83 0
61 22 85 80 85 32 0 43 -4 43 -15z m155 -5 c23 -26 24 -89 2 -123 -25 -38 -87
-38 -116 -1 -28 35 -28 97 -1 124 27 27 90 27 115 0z m192 -10 c19 -37 17
-140 -2 -140 -11 0 -15 11 -15 39 0 21 -3 53 -6 70 -5 26 -11 31 -35 31 -35 0
-40 -8 -46 -81 -4 -40 -10 -59 -19 -59 -11 0 -14 20 -14 84 l0 83 62 -1 c56
-1 64 -4 75 -26z m193 -55 c0 -69 -3 -85 -15 -85 -12 0 -15 16 -15 85 0 69 3
85 15 85 12 0 15 -16 15 -85z m70 73 c0 -9 3 -9 12 0 17 17 58 15 58 -2 0 -8
-10 -16 -22 -18 -29 -4 -48 -42 -48 -95 0 -32 -4 -43 -15 -43 -12 0 -15 16
-15 85 0 69 3 85 15 85 8 0 15 -5 15 -12z m216 1 c8 -7 14 -7 19 1 8 12 65 13
85 0 10 -6 16 -32 18 -84 4 -65 2 -76 -12 -76 -13 0 -16 11 -16 54 0 70 -7 86
-36 86 -30 0 -44 -32 -44 -96 0 -32 -4 -44 -15 -44 -12 0 -15 14 -15 65 0 52
-4 67 -16 72 -33 12 -49 -11 -52 -76 -2 -45 -7 -61 -17 -61 -12 0 -15 17 -15
84 l0 83 52 2 c28 0 57 -4 64 -10z m284 -8 c5 -11 10 -49 10 -84 l0 -64 -62 1
c-59 1 -63 3 -72 28 -13 37 14 68 60 68 39 0 54 18 29 36 -11 9 -25 10 -41 4
-14 -6 -26 -6 -29 0 -12 19 7 30 50 30 34 0 47 -5 55 -19z m190 -66 c0 -69 -3
-85 -15 -85 -12 0 -15 16 -15 85 0 69 3 85 15 85 12 0 15 -16 15 -85z m175 65
c23 -26 24 -89 2 -123 -25 -38 -87 -38 -116 -1 -28 35 -28 97 -1 124 27 27 90
27 115 0z m192 -10 c19 -37 17 -140 -2 -140 -11 0 -15 11 -15 39 0 21 -3 53
-6 70 -5 26 -11 31 -35 31 -35 0 -40 -8 -46 -81 -4 -40 -10 -59 -19 -59 -11 0
-14 20 -14 84 l0 83 62 -1 c56 -1 64 -4 75 -26z m1783 10 c14 -14 20 -33 20
-65 0 -54 -25 -85 -69 -85 -48 0 -76 31 -76 85 0 37 5 51 24 66 30 25 76 24
101 -1z m181 1 c19 -15 24 -29 24 -66 0 -37 -5 -51 -24 -66 -55 -45 -121 -9
-121 66 0 76 65 111 121 66z m252 2 c8 -10 19 -30 22 -45 l7 -28 -56 0 c-49 0
-56 -2 -56 -20 0 -26 34 -43 72 -35 23 6 29 4 26 -6 -3 -8 -22 -15 -46 -17
-56 -4 -82 22 -82 83 0 32 6 51 20 65 25 25 72 26 93 3z m174 -13 c15 -29 17
-140 4 -140 -6 0 -13 5 -17 11 -4 8 -9 8 -17 0 -12 -12 -56 -14 -73 -3 -6 4
-14 17 -18 29 -10 32 24 63 69 63 23 0 35 5 35 14 0 24 -27 38 -60 31 -18 -4
-30 -3 -30 3 0 15 20 21 60 19 26 -2 38 -8 47 -27z m83 21 c0 -5 13 -4 29 2
22 8 36 8 55 -1 25 -11 26 -16 26 -87 0 -43 -4 -75 -10 -75 -5 0 -10 25 -10
56 0 64 -13 94 -40 94 -30 0 -50 -39 -50 -97 0 -29 -4 -53 -10 -53 -6 0 -10
35 -10 85 0 50 4 85 10 85 6 0 10 -4 10 -9z m-9890 -196 c0 -12 -14 -15 -70
-15 -56 0 -70 3 -70 15 0 12 14 15 70 15 56 0 70 -3 70 -15z m2428 -365 c-4
-30 -4 -30 30 -24 30 6 34 4 30 -12 -2 -11 -13 -20 -26 -22 -22 -3 -22 -5 -8
-27 13 -20 13 -25 1 -35 -11 -9 -17 -7 -27 9 -16 26 -25 26 -33 1 -5 -16 -10
-18 -26 -10 -18 10 -18 12 -3 35 15 22 14 24 -8 27 -13 2 -24 11 -26 22 -4 16
0 18 30 12 34 -6 34 -6 30 24 -4 26 -1 30 18 30 19 0 22 -4 18 -30z m-2098
-258 l0 -118 -59 -2 c-73 -2 -96 18 -96 83 0 59 27 88 77 83 38 -4 38 -3 38
34 0 31 4 38 20 38 19 0 20 -7 20 -118z m-190 94 c0 -21 -21 -31 -30 -15 -5 7
-6 17 -4 21 9 14 34 9 34 -6z m1550 -1 c0 -8 -7 -15 -15 -15 -16 0 -20 12 -8
23 11 12 23 8 23 -8z m270 -25 c0 -15 7 -20 25 -20 14 0 25 -4 25 -10 0 -5
-11 -10 -25 -10 -24 0 -25 -3 -25 -60 0 -55 2 -60 25 -66 34 -9 31 -24 -5 -24
-38 0 -50 23 -50 94 0 36 -4 56 -12 56 -6 0 -4 7 5 18 10 10 17 24 17 30 0 7
5 12 10 12 6 0 10 -9 10 -20z m-2588 -87 c3 -66 4 -68 30 -71 34 -4 48 25 48
94 0 32 4 44 15 44 12 0 15 -16 15 -84 l0 -83 -56 -2 c-32 0 -63 4 -70 10 -20
17 -19 159 1 159 11 0 15 -16 17 -67z m263 52 c0 -5 -19 -11 -42 -13 -24 -2
-43 -7 -43 -12 0 -5 19 -19 43 -32 74 -41 61 -98 -24 -98 -40 0 -49 3 -49 18
0 13 8 17 37 17 52 0 55 16 8 41 -43 22 -56 54 -34 80 14 17 104 16 104 -1z
m159 -7 c9 -12 16 -33 16 -45 0 -21 -4 -23 -55 -23 -40 0 -55 -4 -55 -14 0
-23 28 -38 65 -34 29 3 35 1 35 -14 0 -15 -8 -18 -48 -18 -63 0 -87 24 -87 85
0 57 25 85 76 85 28 0 42 -6 53 -22z m156 7 c0 -9 -10 -15 -25 -15 -32 0 -45
-26 -45 -89 0 -39 -4 -51 -15 -51 -12 0 -15 16 -15 84 l0 83 50 2 c38 0 50 -3
50 -14z m190 -70 c0 -69 -3 -85 -15 -85 -12 0 -15 16 -15 85 0 69 3 85 15 85
12 0 15 -16 15 -85z m1550 0 c0 -50 -4 -85 -10 -85 -6 0 -10 35 -10 85 0 50 4
85 10 85 6 0 10 -35 10 -85z m70 75 c0 -7 6 -7 19 0 29 15 67 12 85 -6 22 -22
23 -154 1 -154 -12 0 -15 14 -15 63 0 81 -26 110 -64 71 -11 -10 -16 -34 -16
-75 0 -46 -3 -59 -15 -59 -12 0 -15 16 -15 85 0 50 4 85 10 85 6 0 10 -5 10
-10z m-1670 -195 c0 -12 -14 -15 -70 -15 -56 0 -70 3 -70 15 0 12 14 15 70 15
56 0 70 -3 70 -15z"/>
<path d="M11870 8974 c-10 -12 -8 -14 14 -14 28 0 35 14 12 23 -8 3 -20 -1
-26 -9z"/>
<path d="M2034 8263 c-8 -29 6 -58 26 -58 20 0 34 29 26 58 -4 18 -13 27 -26
27 -13 0 -22 -9 -26 -27z"/>
<path d="M11604 8173 c-8 -29 6 -58 26 -58 20 0 34 29 26 58 -4 18 -13 27 -26
27 -13 0 -22 -9 -26 -27z"/>
<path d="M2116 7444 c-20 -20 -12 -34 19 -34 21 0 45 24 45 44 0 13 -50 5 -64
-10z"/>
<path d="M2587 7519 c-30 -17 -20 -39 18 -39 24 0 35 5 35 15 0 21 -32 35 -53
24z"/>
<path d="M5822 7448 c-22 -22 -7 -48 28 -48 14 0 40 30 40 46 0 17 -51 19 -68
2z"/>
<path d="M6463 7453 c-19 -7 -16 -43 3 -50 21 -8 45 7 55 35 7 19 5 22 -19 21
-15 0 -33 -3 -39 -6z"/>
<path d="M11506 7424 c-25 -24 -19 -34 19 -34 39 0 48 22 16 40 -15 7 -23 6
-35 -6z"/>
<path d="M11956 7354 c-20 -20 -12 -34 19 -34 21 0 45 24 45 44 0 13 -50 5
-64 -10z"/>
<path d="M13956 7424 c-25 -25 -19 -34 24 -34 41 0 52 14 28 38 -16 16 -33 15
-52 -4z"/>
<path d="M14402 7358 c-22 -22 -7 -48 28 -48 14 0 40 30 40 46 0 17 -51 19
-68 2z"/>
<path d="M1926 6734 c-9 -22 -7 -67 3 -82 5 -8 21 -12 37 -10 24 2 30 8 32 32
6 52 -5 76 -37 76 -17 0 -31 -6 -35 -16z"/>
<path d="M6310 6791 c-16 -32 -13 -127 6 -146 36 -35 74 6 74 80 0 70 -54 114
-80 66z"/>
<path d="M6490 6791 c-16 -32 -13 -127 6 -146 36 -35 74 6 74 80 0 70 -54 114
-80 66z"/>
<path d="M2126 6744 c-25 -24 -19 -34 19 -34 39 0 48 22 16 40 -15 7 -23 6
-35 -6z"/>
<path d="M2792 6738 c-7 -7 -12 -26 -12 -43 0 -36 15 -55 46 -55 28 0 48 49
34 85 -10 27 -47 34 -68 13z"/>
<path d="M3162 6738 c-17 -17 -15 -73 2 -88 41 -33 91 23 67 76 -12 26 -48 33
-69 12z"/>
<path d="M5123 6683 c-19 -7 -16 -43 3 -50 21 -8 45 7 55 35 7 19 5 22 -19 21
-15 0 -33 -3 -39 -6z"/>
<path d="M5753 6683 c-19 -7 -16 -43 3 -50 21 -8 45 7 55 35 7 19 5 22 -19 21
-15 0 -33 -3 -39 -6z"/>
<path d="M11582 6638 c-17 -17 -15 -73 2 -88 41 -33 91 23 67 76 -12 26 -48
33 -69 12z"/>
<path d="M11760 6645 c-17 -21 -5 -45 24 -45 28 0 37 17 24 43 -11 21 -31 22
-48 2z"/>
<path d="M11747 6503 c-27 -26 24 -54 62 -33 35 18 26 40 -17 40 -21 0 -42 -3
-45 -7z"/>
<path d="M13802 6578 c-22 -22 -7 -48 28 -48 14 0 40 30 40 46 0 17 -51 19
-68 2z"/>
<path d="M14432 6578 c-22 -22 -7 -48 28 -48 14 0 40 30 40 46 0 17 -51 19
-68 2z"/>
<path d="M6119 5964 c-30 -36 -8 -114 31 -114 26 0 44 27 44 65 0 38 -18 65
-44 65 -10 0 -24 -7 -31 -16z"/>
<path d="M2967 6023 c-4 -3 -7 -42 -7 -85 l0 -78 35 0 c61 0 99 61 75 120 -15
35 -83 64 -103 43z"/>
<path d="M2067 5969 c-30 -17 -20 -39 18 -39 24 0 35 5 35 15 0 21 -32 35 -53
24z"/>
<path d="M2317 5969 c-30 -17 -20 -39 18 -39 24 0 35 5 35 15 0 21 -32 35 -53
24z"/>
<path d="M2476 5894 c-20 -20 -12 -34 19 -34 21 0 45 24 45 44 0 13 -50 5 -64
-10z"/>
<path d="M2807 5969 c-30 -17 -20 -39 18 -39 24 0 35 5 35 15 0 21 -32 35 -53
24z"/>
<path d="M3186 5894 c-20 -20 -12 -34 19 -34 21 0 45 24 45 44 0 13 -50 5 -64
-10z"/>
<path d="M3476 5964 c-25 -24 -19 -34 19 -34 39 0 48 22 16 40 -15 7 -23 6
-35 -6z"/>
<path d="M6303 5903 c-19 -7 -16 -43 3 -50 21 -8 45 7 55 35 7 19 5 22 -19 21
-15 0 -33 -3 -39 -6z"/>
<path d="M6586 5964 c-25 -25 -19 -34 24 -34 41 0 52 14 28 38 -16 16 -33 15
-52 -4z"/>
<path d="M11686 5794 c-20 -20 -12 -34 19 -34 21 0 45 24 45 44 0 13 -50 5
-64 -10z"/>
<path d="M12157 5869 c-30 -17 -20 -39 18 -39 24 0 35 5 35 15 0 21 -32 35
-53 24z"/>
<path d="M13802 5798 c-22 -22 -7 -48 28 -48 14 0 40 30 40 46 0 17 -51 19
-68 2z"/>
<path d="M14432 5798 c-22 -22 -7 -48 28 -48 14 0 40 30 40 46 0 17 -51 19
-68 2z"/>
<path d="M1926 5174 c-9 -22 -7 -67 3 -82 5 -8 21 -12 37 -10 24 2 30 8 32 32
6 52 -5 76 -37 76 -17 0 -31 -6 -35 -16z"/>
<path d="M2426 5114 c-20 -20 -12 -34 19 -34 21 0 45 24 45 44 0 13 -50 5 -64
-10z"/>
<path d="M2792 5178 c-17 -17 -15 -73 2 -88 41 -33 91 23 67 76 -12 26 -48 33
-69 12z"/>
<path d="M11504 5076 c-3 -8 -4 -31 -2 -52 2 -32 7 -40 26 -42 13 -2 30 2 38
8 17 15 19 71 2 88 -16 16 -57 15 -64 -2z"/>
<path d="M12186 5074 c-9 -22 -7 -67 3 -82 5 -8 21 -12 37 -10 24 2 30 8 32
32 6 52 -5 76 -37 76 -17 0 -31 -6 -35 -16z"/>
<path d="M14097 5082 c-32 -36 -13 -112 28 -112 24 0 45 30 45 65 0 56 -41 82
-73 47z"/>
<path d="M12376 5014 c-20 -20 -12 -34 19 -34 21 0 45 24 45 44 0 13 -50 5
-64 -10z"/>
<path d="M14283 5023 c-19 -7 -16 -43 3 -50 21 -8 45 7 55 35 7 19 5 22 -19
21 -15 0 -33 -3 -39 -6z"/>
<path d="M14566 5084 c-25 -25 -19 -34 24 -34 41 0 52 14 28 38 -16 16 -33 15
-52 -4z"/>
<path d="M1933 4413 c-7 -2 -13 -16 -13 -29 0 -22 4 -25 27 -22 31 3 44 35 21
49 -14 10 -17 10 -35 2z"/>
<path d="M1906 4255 c-9 -23 32 -39 68 -26 38 15 28 35 -21 39 -30 2 -42 -1
-47 -13z"/>
<path d="M2107 4409 c-30 -17 -20 -39 18 -39 24 0 35 5 35 15 0 21 -32 35 -53
24z"/>
<path d="M2597 4409 c-30 -17 -20 -39 18 -39 24 0 35 5 35 15 0 21 -32 35 -53
24z"/>
<path d="M5822 4338 c-22 -22 -7 -48 28 -48 14 0 40 30 40 46 0 17 -51 19 -68
2z"/>
<path d="M6463 4343 c-19 -7 -16 -43 3 -50 21 -8 45 7 55 35 7 19 5 22 -19 21
-15 0 -33 -3 -39 -6z"/>
<path d="M11914 3833 c-8 -29 6 -58 26 -58 20 0 34 29 26 58 -4 18 -13 27 -26
27 -13 0 -22 -9 -26 -27z"/>
<path d="M10740 3854 c-10 -12 -8 -14 14 -14 28 0 35 14 12 23 -8 3 -20 -1
-26 -9z"/>
<path d="M11530 3850 c0 -5 12 -10 26 -10 14 0 23 4 19 10 -3 6 -15 10 -26 10
-10 0 -19 -4 -19 -10z"/>
<path d="M2052 3558 c-23 -23 -14 -39 21 -36 24 2 33 8 35 26 3 17 -1 22 -20
22 -13 0 -29 -5 -36 -12z"/>
<path d="M2603 3633 c-7 -2 -13 -16 -13 -29 0 -22 4 -25 27 -22 31 3 44 35 21
49 -14 10 -17 10 -35 2z"/>
<path d="M2576 3475 c-9 -23 32 -39 68 -26 38 15 28 35 -21 39 -30 2 -42 -1
-47 -13z"/>
<path d="M5822 3558 c-22 -22 -7 -48 28 -48 14 0 40 30 40 46 0 17 -51 19 -68
2z"/>
<path d="M6463 3563 c-19 -7 -16 -43 3 -50 21 -8 45 7 55 35 7 19 5 22 -19 21
-15 0 -33 -3 -39 -6z"/>
<path d="M11208 3065 c-18 -41 0 -80 37 -80 23 0 32 6 39 27 14 39 -6 78 -39
78 -18 0 -29 -8 -37 -25z"/>
<path d="M10717 3089 c-30 -17 -20 -39 18 -39 24 0 35 5 35 15 0 21 -32 35
-53 24z"/>
<path d="M11028 2285 c-18 -41 0 -80 37 -80 23 0 32 6 39 27 14 39 -6 78 -39
78 -18 0 -29 -8 -37 -25z"/>
<path d="M11428 2285 c-18 -41 0 -80 37 -80 23 0 32 6 39 27 14 39 -6 78 -39
78 -18 0 -29 -8 -37 -25z"/>
<path d="M5200 2294 c-10 -12 -8 -14 14 -14 28 0 35 14 12 23 -8 3 -20 -1 -26
-9z"/>
<path d="M10677 2303 c-18 -18 -5 -33 29 -33 29 0 35 3 30 16 -3 9 -6 18 -6
20 0 7 -46 5 -53 -3z"/>
<path d="M4832 1518 c-13 -13 -16 -56 -6 -82 8 -21 60 -21 68 0 17 44 2 94
-28 94 -12 0 -27 -5 -34 -12z"/>
<path d="M13636 1524 c-22 -22 -18 -93 7 -108 40 -25 83 44 56 92 -18 33 -41
39 -63 16z"/>
<path d="M10508 1505 c-24 -53 26 -109 68 -75 17 15 19 71 2 88 -21 21 -57 14
-70 -13z"/>
<path d="M11476 1454 c-20 -20 -12 -34 19 -34 21 0 45 24 45 44 0 13 -50 5
-64 -10z"/>
<path d="M11828 1505 c-24 -53 26 -109 68 -75 17 15 19 71 2 88 -21 21 -57 14
-70 -13z"/>
<path d="M13817 1522 c-23 -25 -21 -75 3 -97 17 -15 24 -16 45 -7 47 22 31
122 -20 122 -7 0 -19 -8 -28 -18z"/>
<path d="M14009 1530 c-38 -22 -30 -102 11 -115 52 -17 84 77 38 109 -26 18
-28 19 -49 6z"/>
<path d="M14262 1528 c-24 -24 -13 -38 28 -38 43 0 49 9 24 34 -19 19 -36 20
-52 4z"/>
<path d="M14422 1458 c-22 -22 -7 -48 28 -48 14 0 40 30 40 46 0 17 -51 19
-68 2z"/>
<path d="M4922 738 c-13 -13 -16 -56 -6 -82 8 -21 60 -21 68 0 17 44 2 94 -28
94 -12 0 -27 -5 -34 -12z"/>
<path d="M4406 735 c-9 -25 -9 -25 30 -25 28 0 35 3 32 18 -4 23 -53 29 -62 7z"/>
</g>
</svg>
